<mxfile host="Electron" modified="2024-03-23T14:26:49.181Z" agent="Mozilla/5.0 (X11; Linux x86_64) AppleWebKit/537.36 (KHTML, like Gecko) draw.io/23.1.5 Chrome/120.0.6099.109 Electron/28.1.0 Safari/537.36" etag="pdrFUjNq4FtpWb4NDo2N" version="23.1.5" type="device">
  <diagram id="C5RBs43oDa-KdzZeNtuy" name="Page-1">
    <mxGraphModel dx="1687" dy="905" grid="1" gridSize="10" guides="1" tooltips="1" connect="1" arrows="1" fold="1" page="1" pageScale="1" pageWidth="827" pageHeight="1169" math="0" shadow="0">
      <root>
        <mxCell id="WIyWlLk6GJQsqaUBKTNV-0" />
        <mxCell id="WIyWlLk6GJQsqaUBKTNV-1" parent="WIyWlLk6GJQsqaUBKTNV-0" />
        <mxCell id="WIyWlLk6GJQsqaUBKTNV-2" value="" style="rounded=0;html=1;jettySize=auto;orthogonalLoop=1;fontSize=11;endArrow=block;endFill=0;endSize=8;strokeWidth=1;shadow=0;labelBackgroundColor=none;edgeStyle=orthogonalEdgeStyle;" parent="WIyWlLk6GJQsqaUBKTNV-1" source="WIyWlLk6GJQsqaUBKTNV-3" target="jotnF1fER3KqLnTv9KqM-0" edge="1">
          <mxGeometry relative="1" as="geometry" />
        </mxCell>
        <mxCell id="jotnF1fER3KqLnTv9KqM-9" value="" style="edgeStyle=orthogonalEdgeStyle;rounded=0;orthogonalLoop=1;jettySize=auto;html=1;" edge="1" parent="WIyWlLk6GJQsqaUBKTNV-1" source="WIyWlLk6GJQsqaUBKTNV-3" target="jotnF1fER3KqLnTv9KqM-8">
          <mxGeometry relative="1" as="geometry">
            <Array as="points">
              <mxPoint x="220" y="270" />
              <mxPoint x="290" y="270" />
            </Array>
          </mxGeometry>
        </mxCell>
        <mxCell id="jotnF1fER3KqLnTv9KqM-39" value="Main function runs" style="edgeLabel;html=1;align=center;verticalAlign=middle;resizable=0;points=[];" vertex="1" connectable="0" parent="jotnF1fER3KqLnTv9KqM-9">
          <mxGeometry x="-0.4751" y="1" relative="1" as="geometry">
            <mxPoint as="offset" />
          </mxGeometry>
        </mxCell>
        <mxCell id="WIyWlLk6GJQsqaUBKTNV-3" value="&lt;div style=&quot;&quot;&gt;&lt;span style=&quot;background-color: initial;&quot;&gt;&lt;b&gt;Main&lt;/b&gt;&lt;/span&gt;&lt;/div&gt;&lt;span style=&quot;background-color: initial;&quot;&gt;&lt;span style=&quot;white-space: pre;&quot;&gt;&#x9;&lt;/span&gt;&lt;br&gt;Display options;&lt;br&gt;&lt;/span&gt;&lt;span style=&quot;background-color: initial;&quot;&gt;1) Book a Flight&lt;br&gt;&lt;/span&gt;&lt;span style=&quot;background-color: initial;&quot;&gt;2) Review booking&lt;br&gt;&lt;/span&gt;&lt;span style=&quot;background-color: initial;&quot;&gt;3) Manage Passenger details&lt;br&gt;&lt;/span&gt;&lt;span style=&quot;background-color: initial;&quot;&gt;4) Exit&lt;/span&gt;&lt;span style=&quot;background-color: initial;&quot;&gt;&lt;br&gt;&lt;/span&gt;" style="rounded=1;whiteSpace=wrap;html=1;fontSize=12;glass=0;strokeWidth=1;shadow=0;align=center;fillColor=#fff2cc;strokeColor=#d6b656;verticalAlign=top;" parent="WIyWlLk6GJQsqaUBKTNV-1" vertex="1">
          <mxGeometry x="110" y="50" width="220" height="150" as="geometry" />
        </mxCell>
        <mxCell id="jotnF1fER3KqLnTv9KqM-0" value="&lt;br&gt;Store Flight information in a text file. called flight data.txt each line should have 4 pieces of info. Flight number&lt;br&gt;departure city&lt;br&gt;destination city&lt;br&gt;available seats&lt;br&gt;&lt;br&gt;Need 5 flight&#39;s info stored initially." style="rounded=1;whiteSpace=wrap;html=1;fillColor=#dae8fc;strokeColor=#6c8ebf;align=left;verticalAlign=top;spacingLeft=2;" vertex="1" parent="WIyWlLk6GJQsqaUBKTNV-1">
          <mxGeometry x="460" y="50" width="270" height="150" as="geometry" />
        </mxCell>
        <mxCell id="jotnF1fER3KqLnTv9KqM-5" value="&lt;b&gt;flight_data.txt&lt;/b&gt;" style="rhombus;whiteSpace=wrap;html=1;fillColor=#e1d5e7;strokeColor=#9673a6;" vertex="1" parent="WIyWlLk6GJQsqaUBKTNV-1">
          <mxGeometry x="880" y="320" width="120" height="105" as="geometry" />
        </mxCell>
        <mxCell id="jotnF1fER3KqLnTv9KqM-7" style="edgeStyle=orthogonalEdgeStyle;rounded=0;orthogonalLoop=1;jettySize=auto;html=1;entryX=0.5;entryY=0;entryDx=0;entryDy=0;exitX=0.5;exitY=1;exitDx=0;exitDy=0;" edge="1" parent="WIyWlLk6GJQsqaUBKTNV-1" source="jotnF1fER3KqLnTv9KqM-0" target="jotnF1fER3KqLnTv9KqM-5">
          <mxGeometry relative="1" as="geometry">
            <mxPoint x="630" y="240" as="sourcePoint" />
            <mxPoint x="696.4000000000001" y="459.8499999999999" as="targetPoint" />
          </mxGeometry>
        </mxCell>
        <mxCell id="jotnF1fER3KqLnTv9KqM-8" value="User chooses option" style="ellipse;whiteSpace=wrap;html=1;fillColor=#fff2cc;strokeColor=#d6b656;" vertex="1" parent="WIyWlLk6GJQsqaUBKTNV-1">
          <mxGeometry x="230" y="310" width="120" height="80" as="geometry" />
        </mxCell>
        <mxCell id="jotnF1fER3KqLnTv9KqM-10" value="&lt;span style=&quot;white-space: pre;&quot;&gt;&#x9;&lt;/span&gt;&lt;b&gt;book_a_flight_function&lt;br&gt;&lt;/b&gt;&lt;br&gt;Prompt the user to enter their name, contact number, and flight they want to book&lt;br&gt;&lt;div&gt;&lt;br&gt;&lt;/div&gt;&lt;div&gt;Validate input (name must be &amp;lt;1 , &amp;gt;20 characters long)&lt;/div&gt;&lt;div&gt;&lt;br&gt;&lt;/div&gt;&lt;div&gt;Contact number must be an int and be exactly 10 characters long&lt;br&gt;&lt;br&gt;Check that flight date is valid (XX/XX/XXXX , not in the past)&lt;br&gt;&lt;br&gt;Must ensure same person does not book the same flight twice,&amp;nbsp;&lt;br&gt;&lt;br&gt;Ensure that they dont book &amp;gt;1 flight on the same day&lt;br&gt;&lt;br&gt;Ensure that they flight they chose is valid and that there are seats available&amp;nbsp;&lt;br&gt;&lt;br&gt;On booking, update the flight data&lt;br&gt;&lt;br&gt;Create/ update a file called bookings.txt which stores the following information about the passenger; Passenger name, Contact Number, Flight Booked, Booking Date&lt;/div&gt;" style="rounded=1;whiteSpace=wrap;html=1;align=left;verticalAlign=top;fillColor=#fff2cc;strokeColor=#d6b656;spacingLeft=2;" vertex="1" parent="WIyWlLk6GJQsqaUBKTNV-1">
          <mxGeometry x="30" y="480" width="230" height="530" as="geometry" />
        </mxCell>
        <mxCell id="jotnF1fER3KqLnTv9KqM-11" value="&lt;b&gt;review_booking_function&lt;/b&gt;&lt;br&gt;&lt;br&gt;&lt;div style=&quot;text-align: left;&quot;&gt;request passenger contact number&lt;br&gt;&lt;br&gt;if contact number in bookings.txt , display the booking info&lt;/div&gt;" style="rounded=1;whiteSpace=wrap;html=1;fillColor=#fff2cc;strokeColor=#d6b656;align=center;verticalAlign=top;spacingLeft=3;" vertex="1" parent="WIyWlLk6GJQsqaUBKTNV-1">
          <mxGeometry x="300" y="480" width="160" height="245" as="geometry" />
        </mxCell>
        <mxCell id="jotnF1fER3KqLnTv9KqM-14" value="manage passenger details" style="endArrow=classic;html=1;rounded=0;exitX=1;exitY=0.5;exitDx=0;exitDy=0;entryX=0.377;entryY=-0.008;entryDx=0;entryDy=0;entryPerimeter=0;" edge="1" parent="WIyWlLk6GJQsqaUBKTNV-1" source="jotnF1fER3KqLnTv9KqM-8" target="ZaHMQrYkX4JcANHLe2sn-0">
          <mxGeometry x="-0.1007" width="50" height="50" relative="1" as="geometry">
            <mxPoint x="340" y="347.68" as="sourcePoint" />
            <mxPoint x="573.8" y="510.00000000000006" as="targetPoint" />
            <Array as="points">
              <mxPoint x="600" y="350" />
            </Array>
            <mxPoint x="-1" as="offset" />
          </mxGeometry>
        </mxCell>
        <mxCell id="jotnF1fER3KqLnTv9KqM-15" value="review a booking" style="endArrow=classic;html=1;rounded=0;exitX=0.5;exitY=1;exitDx=0;exitDy=0;" edge="1" parent="WIyWlLk6GJQsqaUBKTNV-1" source="jotnF1fER3KqLnTv9KqM-8" target="jotnF1fER3KqLnTv9KqM-11">
          <mxGeometry width="50" height="50" relative="1" as="geometry">
            <mxPoint x="340" y="500" as="sourcePoint" />
            <mxPoint x="330" y="500" as="targetPoint" />
            <Array as="points">
              <mxPoint x="330" y="430" />
            </Array>
          </mxGeometry>
        </mxCell>
        <mxCell id="jotnF1fER3KqLnTv9KqM-16" value="Book a flight" style="endArrow=classic;html=1;rounded=0;exitX=0;exitY=0.5;exitDx=0;exitDy=0;entryX=0.5;entryY=0;entryDx=0;entryDy=0;" edge="1" parent="WIyWlLk6GJQsqaUBKTNV-1" source="jotnF1fER3KqLnTv9KqM-8" target="jotnF1fER3KqLnTv9KqM-10">
          <mxGeometry width="50" height="50" relative="1" as="geometry">
            <mxPoint x="340" y="500" as="sourcePoint" />
            <mxPoint x="390" y="450" as="targetPoint" />
            <Array as="points">
              <mxPoint x="145" y="350" />
            </Array>
          </mxGeometry>
        </mxCell>
        <mxCell id="jotnF1fER3KqLnTv9KqM-17" value="" style="endArrow=classic;html=1;rounded=0;exitX=1;exitY=0;exitDx=0;exitDy=0;" edge="1" parent="WIyWlLk6GJQsqaUBKTNV-1" source="jotnF1fER3KqLnTv9KqM-8">
          <mxGeometry width="50" height="50" relative="1" as="geometry">
            <mxPoint x="340" y="380" as="sourcePoint" />
            <mxPoint x="280" y="30" as="targetPoint" />
            <Array as="points">
              <mxPoint x="390" y="260" />
              <mxPoint x="420" y="70" />
            </Array>
          </mxGeometry>
        </mxCell>
        <mxCell id="jotnF1fER3KqLnTv9KqM-18" value="Exit" style="edgeLabel;html=1;align=center;verticalAlign=middle;resizable=0;points=[];" vertex="1" connectable="0" parent="jotnF1fER3KqLnTv9KqM-17">
          <mxGeometry x="0.1489" y="-4" relative="1" as="geometry">
            <mxPoint x="-19" y="85" as="offset" />
          </mxGeometry>
        </mxCell>
        <mxCell id="jotnF1fER3KqLnTv9KqM-22" value="Update flight data if user books a flight" style="endArrow=classic;html=1;rounded=0;exitX=1;exitY=0.681;exitDx=0;exitDy=0;exitPerimeter=0;entryX=0.5;entryY=1;entryDx=0;entryDy=0;" edge="1" parent="WIyWlLk6GJQsqaUBKTNV-1" source="jotnF1fER3KqLnTv9KqM-10" target="jotnF1fER3KqLnTv9KqM-5">
          <mxGeometry x="-0.1987" y="-2" width="50" height="50" relative="1" as="geometry">
            <mxPoint x="260" y="863" as="sourcePoint" />
            <mxPoint x="740" y="500" as="targetPoint" />
            <Array as="points">
              <mxPoint x="540" y="827" />
              <mxPoint x="830" y="830" />
              <mxPoint x="830" y="470" />
            </Array>
            <mxPoint as="offset" />
          </mxGeometry>
        </mxCell>
        <mxCell id="jotnF1fER3KqLnTv9KqM-23" value="" style="endArrow=classic;html=1;rounded=0;exitX=1.007;exitY=0.772;exitDx=0;exitDy=0;exitPerimeter=0;entryX=0;entryY=0.5;entryDx=0;entryDy=0;" edge="1" parent="WIyWlLk6GJQsqaUBKTNV-1" source="jotnF1fER3KqLnTv9KqM-10" target="jotnF1fER3KqLnTv9KqM-24">
          <mxGeometry width="50" height="50" relative="1" as="geometry">
            <mxPoint x="279.9999999999999" y="902.7790000000002" as="sourcePoint" />
            <mxPoint x="705.8599999999998" y="870" as="targetPoint" />
            <Array as="points" />
          </mxGeometry>
        </mxCell>
        <mxCell id="jotnF1fER3KqLnTv9KqM-37" value="Add passenger&#39;s booking info" style="edgeLabel;html=1;align=center;verticalAlign=middle;resizable=0;points=[];" vertex="1" connectable="0" parent="jotnF1fER3KqLnTv9KqM-23">
          <mxGeometry x="-0.0706" relative="1" as="geometry">
            <mxPoint as="offset" />
          </mxGeometry>
        </mxCell>
        <mxCell id="jotnF1fER3KqLnTv9KqM-24" value="bookings.txt" style="rhombus;whiteSpace=wrap;html=1;fillColor=#e1d5e7;strokeColor=#9673a6;" vertex="1" parent="WIyWlLk6GJQsqaUBKTNV-1">
          <mxGeometry x="880" y="870" width="120" height="90" as="geometry" />
        </mxCell>
        <mxCell id="jotnF1fER3KqLnTv9KqM-33" value="" style="endArrow=classic;startArrow=classic;html=1;rounded=0;entryX=0.5;entryY=0;entryDx=0;entryDy=0;" edge="1" parent="WIyWlLk6GJQsqaUBKTNV-1" source="jotnF1fER3KqLnTv9KqM-11" target="jotnF1fER3KqLnTv9KqM-24">
          <mxGeometry width="50" height="50" relative="1" as="geometry">
            <mxPoint x="450" y="650" as="sourcePoint" />
            <mxPoint x="410" y="580" as="targetPoint" />
            <Array as="points">
              <mxPoint x="490" y="740" />
              <mxPoint x="940" y="750" />
            </Array>
          </mxGeometry>
        </mxCell>
        <mxCell id="jotnF1fER3KqLnTv9KqM-38" value="&amp;nbsp;if user has a booking, show booking details" style="edgeLabel;html=1;align=center;verticalAlign=middle;resizable=0;points=[];" vertex="1" connectable="0" parent="jotnF1fER3KqLnTv9KqM-33">
          <mxGeometry x="-0.3633" y="1" relative="1" as="geometry">
            <mxPoint x="-8" y="3" as="offset" />
          </mxGeometry>
        </mxCell>
        <mxCell id="jotnF1fER3KqLnTv9KqM-36" value="Remove a passenger from bookings" style="endArrow=classic;html=1;rounded=0;entryX=1;entryY=0.5;entryDx=0;entryDy=0;" edge="1" parent="WIyWlLk6GJQsqaUBKTNV-1" source="ZaHMQrYkX4JcANHLe2sn-0" target="jotnF1fER3KqLnTv9KqM-24">
          <mxGeometry width="50" height="50" relative="1" as="geometry">
            <mxPoint x="680" y="580" as="sourcePoint" />
            <mxPoint x="480" y="530" as="targetPoint" />
            <Array as="points">
              <mxPoint x="1000" y="600" />
            </Array>
          </mxGeometry>
        </mxCell>
        <mxCell id="ZaHMQrYkX4JcANHLe2sn-0" value="&lt;b&gt;manage_passenger_details_function&lt;/b&gt;&lt;br&gt;&lt;br&gt;1) View Passenger Details&lt;br&gt;Enter the passengers name, if name found in bookings, display the info&lt;br&gt;-&amp;nbsp;&lt;br&gt;Change/Update passenger info&lt;br style=&quot;border-color: var(--border-color);&quot;&gt;OR&lt;br style=&quot;border-color: var(--border-color);&quot;&gt;Remove a passenger from the bookings file&amp;nbsp;&lt;br&gt;&lt;br&gt;&lt;br&gt;2) View Flight Details&lt;br&gt;Show the flights, seats booked and remaining seats&lt;br&gt;&lt;div&gt;&lt;br&gt;&lt;/div&gt;" style="rounded=1;whiteSpace=wrap;html=1;fillColor=#fff2cc;strokeColor=#d6b656;verticalAlign=top;" vertex="1" parent="WIyWlLk6GJQsqaUBKTNV-1">
          <mxGeometry x="490" y="480" width="289" height="240" as="geometry" />
        </mxCell>
        <mxCell id="ZaHMQrYkX4JcANHLe2sn-2" value="Update info" style="endArrow=classic;startArrow=classic;html=1;rounded=0;entryX=1.005;entryY=0.835;entryDx=0;entryDy=0;exitX=1;exitY=0;exitDx=0;exitDy=0;entryPerimeter=0;" edge="1" parent="WIyWlLk6GJQsqaUBKTNV-1" source="jotnF1fER3KqLnTv9KqM-24" target="ZaHMQrYkX4JcANHLe2sn-0">
          <mxGeometry x="-0.0922" width="50" height="50" relative="1" as="geometry">
            <mxPoint x="340" y="700" as="sourcePoint" />
            <mxPoint x="390" y="650" as="targetPoint" />
            <Array as="points">
              <mxPoint x="970" y="680" />
            </Array>
            <mxPoint as="offset" />
          </mxGeometry>
        </mxCell>
      </root>
    </mxGraphModel>
  </diagram>
</mxfile>
